<?xml version="1.0" standalone="no"?>
<!DOCTYPE svg PUBLIC "-//W3C//DTD SVG 20010904//EN"
 "http://www.w3.org/TR/2001/REC-SVG-20010904/DTD/svg10.dtd">
<svg version="1.0" xmlns="http://www.w3.org/2000/svg"
 width="512.000000pt" height="512.000000pt" viewBox="0 0 512.000000 512.000000"
 preserveAspectRatio="xMidYMid meet">
<metadata>
Created by potrace 1.15, written by Peter Selinger 2001-2017
</metadata>
<g transform="translate(0.000000,512.000000) scale(0.100000,-0.100000)"
fill="#000000" stroke="none">
<path d="M520 4989 c-155 -31 -290 -169 -320 -330 -6 -33 -10 -800 -10 -2073
0 -2184 -3 -2073 51 -2178 34 -67 115 -145 188 -181 l66 -32 2065 0 2065 0 66
32 c116 57 204 172 229 298 8 44 10 605 8 2105 l-3 2045 -23 55 c-46 113 -129
196 -242 242 l-55 23 -2020 1 c-1130 1 -2040 -2 -2065 -7z m2182 -418 c212
-73 344 -288 309 -498 -45 -263 -303 -436 -567 -380 -220 47 -374 231 -374
447 0 126 49 238 142 327 130 122 321 163 490 104z m41 -1026 c255 -44 491
-198 633 -411 47 -70 114 -209 114 -235 0 -5 -21 -9 -48 -9 l-48 0 -29 67
c-141 325 -480 530 -840 510 -157 -9 -317 -63 -445 -150 -129 -89 -254 -243
-305 -379 l-18 -48 -48 0 c-33 0 -49 4 -49 13 0 22 65 161 104 222 46 70 160
192 231 245 209 156 487 221 748 175z m917 -780 l0 -45 -968 0 c-533 0 -1010
-3 -1060 -6 l-92 -7 0 52 0 51 1060 0 1060 0 0 -45z m-2134 -189 c163 -43 298
-176 338 -331 99 -378 -312 -696 -672 -519 -279 137 -346 486 -136 713 115
124 308 180 470 137z m2418 -39 c286 -136 362 -484 155 -711 -97 -107 -209
-156 -354 -156 -104 0 -191 26 -274 81 -280 187 -262 599 33 769 82 46 147 60
262 57 92 -3 108 -7 178 -40z m-1246 -132 c85 -20 149 -54 216 -116 98 -89
146 -198 146 -329 0 -129 -47 -236 -142 -327 -166 -156 -410 -174 -607 -45
-139 92 -220 277 -191 440 29 170 141 303 305 360 99 35 175 40 273 17z
m-1009 -884 c154 -45 263 -103 380 -201 l73 -62 67 30 c187 85 379 111 575 77
92 -16 195 -49 261 -82 l39 -20 70 57 c120 97 231 153 386 197 52 14 100 18
240 17 162 0 182 -2 265 -28 276 -84 488 -264 600 -510 54 -119 55 -116 -3
-116 l-50 0 -23 56 c-52 129 -177 281 -298 363 -78 53 -142 84 -241 117 -80
26 -95 28 -255 28 -160 0 -175 -2 -255 -28 -47 -15 -115 -44 -151 -63 -71 -37
-184 -122 -184 -139 0 -6 28 -34 62 -63 115 -95 216 -236 267 -373 l26 -68
-49 0 -48 0 -45 93 c-49 101 -110 183 -220 295 -82 83 -178 136 -314 173 -114
32 -363 32 -479 1 -145 -39 -233 -91 -343 -200 -107 -107 -156 -175 -208 -288
l-35 -74 -49 0 -50 0 25 65 c52 138 164 294 275 382 l60 48 -37 33 c-116 102
-275 180 -428 209 -106 20 -291 12 -394 -17 -247 -70 -458 -254 -556 -485
l-28 -66 -46 3 c-56 4 -56 9 0 127 135 285 386 472 719 535 14 2 93 3 175 1
117 -2 166 -7 224 -24z"/>
<path d="M2462 4500 c-190 -40 -326 -234 -293 -417 54 -287 406 -409 622 -216
62 56 92 102 113 173 66 223 -99 449 -338 465 -34 2 -80 0 -104 -5z"/>
<path d="M1289 2481 c-101 -32 -174 -95 -227 -195 -24 -46 -27 -62 -27 -151 0
-82 4 -109 22 -148 30 -65 112 -148 180 -183 54 -27 66 -29 168 -29 100 0 115
3 167 28 76 37 159 128 188 204 31 82 25 206 -13 280 -88 171 -278 252 -458
194z"/>
<path d="M3633 2476 c-107 -35 -206 -126 -242 -222 -28 -74 -28 -184 0 -259
27 -73 105 -157 183 -198 57 -30 67 -32 166 -32 93 0 112 3 162 27 79 37 142
98 181 177 29 59 32 74 32 156 0 82 -3 97 -33 157 -38 78 -101 139 -182 176
-67 31 -199 40 -267 18z"/>
<path d="M2513 2320 c-210 -44 -346 -258 -289 -454 22 -76 52 -121 115 -179
72 -64 144 -90 251 -91 75 0 93 3 152 31 237 111 297 384 127 577 -79 90 -237
141 -356 116z"/>
</g>
</svg>
